<?xml version="1.0" standalone="no"?><!DOCTYPE svg PUBLIC "-//W3C//DTD SVG 1.1//EN" "http://www.w3.org/Graphics/SVG/1.1/DTD/svg11.dtd"><svg t="1564824370673" class="icon" viewBox="0 0 1137 1024" version="1.1" xmlns="http://www.w3.org/2000/svg" p-id="2539" xmlns:xlink="http://www.w3.org/1999/xlink" width="71.0625" height="64"><defs><style type="text/css"></style></defs><path d="M824.888889 0H274.147556L0.682667 284.16V414.151111l548.807111 587.889778L1098.353778 414.151111V284.16z" fill="#FC8614" p-id="2540"></path><path d="M0 414.151111l549.546667 587.889778L1098.979556 414.151111z" fill="#F68508" p-id="2541"></path><path d="M0.682667 414.151111l548.807111 4.039111L274.773333 0z" fill="#F59900" p-id="2542"></path><path d="M0.682667 284.16l548.807111 717.937778L274.773333 0z" fill="#FFA200" p-id="2543"></path><path d="M1099.036444 414.151111l-548.864 4.039111L824.945778 0z" fill="#F59900" p-id="2544"></path><path d="M1099.036444 284.16L550.115556 1002.097778 824.945778 0z" fill="#FFA200" p-id="2545"></path><path d="M0.682667 414.151111l548.807111 587.889778L0.682667 284.16V414.151111z m1098.353777 0L550.115556 1002.040889 1099.093333 284.16V414.151111z" fill="#F59900" p-id="2546"></path><path d="M274.773333 0l274.773334 418.190222L824.206222 0z" fill="#F6AE2D" p-id="2547"></path><path d="M101.660444 418.190222L549.546667 0l448.512 418.190222z" fill="#FCB81D" p-id="2548"></path><path d="M801.393778 307.768889c-18.204444 0-31.118222 1.308444-39.082667 3.982222-7.395556 2.730667-12.8 6.826667-14.791111 11.491556l-152.234667 352.881777h-88.177777l-146.204445-352.199111c-2.673778-5.404444-8.021333-9.443556-16.782222-12.117333a113.436444 113.436444 0 0 0-32.995556-4.039111v-31.687111h222.208v31.687111H480.142222c-11.434667 0-17.464889 3.356444-17.464889 9.443555 0 2.332444 0.682667 4.664889 1.934223 6.712889l116.565333 287.516445 116.622222-283.534222a15.132444 15.132444 0 0 0 1.877333-7.395556c0-8.760889-9.386667-12.8-27.591111-12.8h-37.717333v-31.630222h165.660444l1.365334 31.687111z" fill="#FFFFFF" p-id="2549"></path></svg>